<svg width="15" height="20" viewBox="0 0 15 20" fill="none" xmlns="http://www.w3.org/2000/svg">
<g id="Vector">
<path id="Vector_2" d="M5 0C6.38333 0 7.68333 0.262667 8.9 0.788C10.1167 1.31333 11.175 2.02567 12.075 2.925C12.975 3.825 13.6877 4.88333 14.213 6.1C14.7383 7.31667 15.0007 8.61667 15 10C15 11.3833 14.7373 12.6833 14.212 13.9C13.6867 15.1167 12.9743 16.175 12.075 17.075C11.175 17.975 10.1167 18.6877 8.9 19.213C7.68333 19.7383 6.38333 20.0007 5 20C4.11667 20 3.254 19.8873 2.412 19.662C1.57 19.4367 0.766 19.0993 0 18.65C1.55 17.75 2.771 16.5333 3.663 15C4.555 13.4667 5.00067 11.8 5 10C5 8.2 4.554 6.53333 3.662 5C2.77 3.46667 1.54933 2.25 0 1.35C0.766667 0.9 1.571 0.562667 2.413 0.338C3.255 0.113333 4.11733 0.000666667 5 0Z" fill="black"/>
</g>
</svg>
